<mxfile host="drawio-plugin" modified="2021-03-27T22:54:11.292Z" agent="5.0 (Macintosh; Intel Mac OS X 10_16_0) AppleWebKit/537.36 (KHTML, like Gecko) Chrome/84.0.4147.105 Safari/537.36" etag="7S4_j_bHMRS1wqG0TraV" version="13.7.9" type="embed"><diagram id="rjR9wzhXq8Hpp7HeJRx-" name="Page-1"><mxGraphModel dx="925" dy="633" grid="1" gridSize="10" guides="1" tooltips="1" connect="1" arrows="1" fold="1" page="1" pageScale="1" pageWidth="850" pageHeight="1100" math="0" shadow="0"><root><mxCell id="0"/><mxCell id="1" parent="0"/><mxCell id="33" style="edgeStyle=orthogonalEdgeStyle;curved=1;rounded=0;orthogonalLoop=1;jettySize=auto;html=1;entryX=0;entryY=0.5;entryDx=0;entryDy=0;exitX=0.25;exitY=1;exitDx=0;exitDy=0;" edge="1" parent="1" source="29" target="30"><mxGeometry relative="1" as="geometry"/></mxCell><mxCell id="34" value="" style="edgeStyle=orthogonalEdgeStyle;curved=1;rounded=0;orthogonalLoop=1;jettySize=auto;html=1;exitX=0.75;exitY=1;exitDx=0;exitDy=0;entryX=1;entryY=0.5;entryDx=0;entryDy=0;" edge="1" parent="1" source="29" target="30"><mxGeometry relative="1" as="geometry"><mxPoint x="490" y="300" as="targetPoint"/><Array as="points"><mxPoint x="575" y="310"/></Array></mxGeometry></mxCell><mxCell id="36" value="" style="edgeStyle=orthogonalEdgeStyle;curved=1;rounded=0;orthogonalLoop=1;jettySize=auto;html=1;" edge="1" parent="1" source="29" target="30"><mxGeometry relative="1" as="geometry"/></mxCell><mxCell id="29" value="API for sending message" style="rounded=0;whiteSpace=wrap;html=1;" vertex="1" parent="1"><mxGeometry x="120" y="130" width="610" height="80" as="geometry"/></mxCell><mxCell id="46" value="" style="edgeStyle=orthogonalEdgeStyle;curved=1;rounded=0;orthogonalLoop=1;jettySize=auto;html=1;" edge="1" parent="1" source="30" target="45"><mxGeometry relative="1" as="geometry"/></mxCell><mxCell id="47" style="edgeStyle=orthogonalEdgeStyle;curved=1;rounded=0;orthogonalLoop=1;jettySize=auto;html=1;entryX=0.25;entryY=0;entryDx=0;entryDy=0;" edge="1" parent="1" source="30" target="45"><mxGeometry relative="1" as="geometry"><mxPoint x="280" y="370" as="targetPoint"/></mxGeometry></mxCell><mxCell id="48" style="edgeStyle=orthogonalEdgeStyle;curved=1;rounded=0;orthogonalLoop=1;jettySize=auto;html=1;entryX=0.75;entryY=0;entryDx=0;entryDy=0;" edge="1" parent="1" source="30" target="45"><mxGeometry relative="1" as="geometry"/></mxCell><mxCell id="30" value="Broker" style="ellipse;whiteSpace=wrap;html=1;" vertex="1" parent="1"><mxGeometry x="365" y="270" width="120" height="80" as="geometry"/></mxCell><mxCell id="39" style="edgeStyle=orthogonalEdgeStyle;curved=1;rounded=0;orthogonalLoop=1;jettySize=auto;html=1;entryX=0.175;entryY=0;entryDx=0;entryDy=0;entryPerimeter=0;" edge="1" parent="1" source="37" target="29"><mxGeometry relative="1" as="geometry"/></mxCell><mxCell id="37" value="Message&amp;nbsp;&lt;br&gt;Request 1" style="ellipse;whiteSpace=wrap;html=1;" vertex="1" parent="1"><mxGeometry x="170" y="20" width="120" height="80" as="geometry"/></mxCell><mxCell id="41" value="" style="edgeStyle=orthogonalEdgeStyle;curved=1;rounded=0;orthogonalLoop=1;jettySize=auto;html=1;entryX=0.5;entryY=0;entryDx=0;entryDy=0;" edge="1" parent="1" source="40" target="29"><mxGeometry relative="1" as="geometry"/></mxCell><mxCell id="40" value="Message&amp;nbsp;&lt;br&gt;Request 2" style="ellipse;whiteSpace=wrap;html=1;" vertex="1" parent="1"><mxGeometry x="365" y="20" width="120" height="80" as="geometry"/></mxCell><mxCell id="44" value="" style="edgeStyle=orthogonalEdgeStyle;curved=1;rounded=0;orthogonalLoop=1;jettySize=auto;html=1;entryX=0.842;entryY=0.013;entryDx=0;entryDy=0;entryPerimeter=0;" edge="1" parent="1" source="42" target="29"><mxGeometry relative="1" as="geometry"/></mxCell><mxCell id="42" value="Message&amp;nbsp;&lt;br&gt;Request 3" style="ellipse;whiteSpace=wrap;html=1;" vertex="1" parent="1"><mxGeometry x="570" y="20" width="120" height="80" as="geometry"/></mxCell><mxCell id="53" style="edgeStyle=orthogonalEdgeStyle;curved=1;rounded=0;orthogonalLoop=1;jettySize=auto;html=1;entryX=0.5;entryY=0;entryDx=0;entryDy=0;" edge="1" parent="1" source="45" target="49"><mxGeometry relative="1" as="geometry"/></mxCell><mxCell id="57" value="user1-subscription1" style="edgeLabel;html=1;align=center;verticalAlign=middle;resizable=0;points=[];" vertex="1" connectable="0" parent="53"><mxGeometry x="0.1313" y="3" relative="1" as="geometry"><mxPoint as="offset"/></mxGeometry></mxCell><mxCell id="54" style="edgeStyle=orthogonalEdgeStyle;curved=1;rounded=0;orthogonalLoop=1;jettySize=auto;html=1;" edge="1" parent="1" source="45" target="50"><mxGeometry relative="1" as="geometry"/></mxCell><mxCell id="58" value="user1-subscription-2" style="edgeLabel;html=1;align=center;verticalAlign=middle;resizable=0;points=[];" vertex="1" connectable="0" parent="54"><mxGeometry x="0.0111" y="2" relative="1" as="geometry"><mxPoint x="1" as="offset"/></mxGeometry></mxCell><mxCell id="55" style="edgeStyle=orthogonalEdgeStyle;curved=1;rounded=0;orthogonalLoop=1;jettySize=auto;html=1;entryX=0.5;entryY=0;entryDx=0;entryDy=0;" edge="1" parent="1" source="45" target="51"><mxGeometry relative="1" as="geometry"/></mxCell><mxCell id="59" value="user2-subscription1" style="edgeLabel;html=1;align=center;verticalAlign=middle;resizable=0;points=[];" vertex="1" connectable="0" parent="55"><mxGeometry x="0.6839" y="-7" relative="1" as="geometry"><mxPoint as="offset"/></mxGeometry></mxCell><mxCell id="56" style="edgeStyle=orthogonalEdgeStyle;curved=1;rounded=0;orthogonalLoop=1;jettySize=auto;html=1;entryX=0.5;entryY=0;entryDx=0;entryDy=0;" edge="1" parent="1" source="45" target="52"><mxGeometry relative="1" as="geometry"/></mxCell><mxCell id="60" value="user3-subscription1" style="edgeLabel;html=1;align=center;verticalAlign=middle;resizable=0;points=[];" vertex="1" connectable="0" parent="56"><mxGeometry x="0.0652" y="1" relative="1" as="geometry"><mxPoint as="offset"/></mxGeometry></mxCell><mxCell id="45" value="Reactor + Webflux" style="rounded=0;whiteSpace=wrap;html=1;" vertex="1" parent="1"><mxGeometry x="123" y="400" width="605" height="70" as="geometry"/></mxCell><mxCell id="49" value="User1 Browser" style="ellipse;whiteSpace=wrap;html=1;" vertex="1" parent="1"><mxGeometry x="100" y="530" width="120" height="80" as="geometry"/></mxCell><mxCell id="50" value="User1 Mobile" style="ellipse;whiteSpace=wrap;html=1;" vertex="1" parent="1"><mxGeometry x="270" y="560" width="120" height="80" as="geometry"/></mxCell><mxCell id="51" value="User2" style="ellipse;whiteSpace=wrap;html=1;" vertex="1" parent="1"><mxGeometry x="440" y="560" width="120" height="80" as="geometry"/></mxCell><mxCell id="52" value="User3" style="ellipse;whiteSpace=wrap;html=1;" vertex="1" parent="1"><mxGeometry x="620" y="530" width="120" height="80" as="geometry"/></mxCell></root></mxGraphModel></diagram></mxfile>